<svg xmlns="http://www.w3.org/2000/svg" width="27" height="34" viewBox="0 0 27 34"><path fill="#FFCB78" d="M13.641 0H13.5L0 1.406v24.606L13.5 34 27 26.012V1.406L13.641 0zm11.591 25.001l-11.733 6.942-11.733-6.942V14.912l11.68 6.916v1.256l-8.014-4.745v1.213l8.049 4.807v1.283l-8.04-4.763v1.213l8.049 4.807 8.119-4.834v-5.194l3.622-2.153.001 10.283zm0-11.564l-3.225 1.88-1.484.878-7.068-4.183v1.213l6.043 3.577h-.053l-.133.079-.884.502-4.983-2.952v1.213l3.932 2.329-.927.616-2.969-1.758v1.213l1.952 1.142-1.988 1.186L1.818 13.5l11.636-6.96 11.778 6.897zm0-1.222L13.438 5.299 1.775 12.207V2.98l11.733-1.221L25.241 2.98v9.236l-.009-.001z"/></svg>