<svg xmlns="http://www.w3.org/2000/svg" width="1400" height="68" viewBox="-649.5 300.5 1400 68"><path fill="#FFCB78" d="M-557.09 331.747c-2.02 2.59-2.238 2.349-.573 3.844 1.604 1.436 1.937 2.129 1.989 2.219 0 0 .666 1.125-.739 1.134l-2.666.04c-.573.11-1.333-.391-1.333-.391-1-.662-1.937-2.379-2.666-2.158 0 0-.75.23-.729 1.777.011.331-.156.512-.156.512s-.187.19-.552.22h-1.198c-2.635.161-4.956-2.178-4.956-2.178s-2.541-2.53-4.769-7.578c-.146-.331.01-.492.01-.492s.156-.191.594-.191l2.853-.02c.271.04.458.181.458.181s.166.11.25.321c.468 1.125 1.073 2.148 1.073 2.148 1.041 2.068 1.75 2.419 2.156 2.208 0 0 .531-.311.417-2.811-.042-.904-.302-1.315-.302-1.315-.24-.311-.688-.402-.885-.432-.156-.02.104-.381.448-.542.51-.241 1.416-.251 2.488-.241.844.01 1.083.06 1.406.13.99.231.657 1.114.657 3.242 0 .683-.136 1.637.375 1.948.219.14.76.02 2.093-2.168 0 0 .625-1.044 1.114-2.259.083-.221.26-.311.26-.311s.166-.091.395-.061l2.999-.02c.906-.11 1.052.291 1.052.291.155.413-.334 1.377-1.563 2.953zm-83.41-3.093h-1.636c-1.281 0-1.521.568-1.521 1.385v1.817h3.052l-.406 2.846h-2.646V341h-3.187v-6.298h-2.656v-2.846h2.657v-2.096c0-2.433 1.614-3.76 3.968-3.76 1.125 0 2.094.077 2.375.116v2.538zm155.953 7.735c-.054 1.121-.31 2.115-1.13 2.934-.82.82-1.814 1.076-2.934 1.13-.966.055-1.923.046-2.889.046s-1.923.009-2.889-.046c-1.121-.054-2.115-.31-2.934-1.13-.82-.82-1.076-1.814-1.13-2.934-.055-.966-.046-1.923-.046-2.889s-.009-1.923.046-2.889c.054-1.121.31-2.115 1.13-2.934.82-.82 1.814-1.076 2.934-1.13.966-.055 1.923-.046 2.889-.046s1.923-.009 2.889.046c1.121.054 2.115.31 2.934 1.13.82.82 1.076 1.814 1.13 2.934.055.966.046 1.923.046 2.889s.009 1.923-.046 2.889zm-11.083-8.348c-.319.128-.555.283-.802.529-.246.246-.401.483-.529.802-.364.921-.282 3.108-.282 4.129s-.082 3.208.282 4.129c.128.319.283.555.529.802.246.246.483.401.802.529.921.364 3.108.282 4.129.282s3.208.082 4.129-.282c.319-.128.555-.283.802-.529.246-.246.401-.483.529-.802.364-.921.282-3.108.282-4.129s.082-3.208-.282-4.129c-.128-.319-.283-.555-.529-.802-.246-.246-.483-.401-.802-.529-.921-.364-3.108-.282-4.129-.282s-3.208-.083-4.129.282zm4.129 9.05c-1.987 0-3.591-1.604-3.591-3.591s1.604-3.591 3.591-3.591 3.591 1.604 3.591 3.591-1.604 3.591-3.591 3.591zm0-5.924c-1.285 0-2.333 1.048-2.333 2.333s1.048 2.333 2.333 2.333 2.333-1.048 2.333-2.333-1.048-2.333-2.333-2.333zm3.737-.565c-.465 0-.838-.373-.838-.838 0-.464.373-.838.838-.838.464 0 .838.374.838.838 0 .464-.374.838-.838.838z"/><path fill="#D6CEC3" d="M709.5 300.5h19v18s0 12-10 12v-12h-9v-18zm22 0h19v18s0 12-10 12v-12h-9v-18z"/><path fill="#834700" d="M400.083-50h300V0h-300z"/><path fill="#834700" d="M700.083-50h300V0h-300zm300 0h300V0h-300zM-227.5 323.5c-4.5-4.5-13-6-23-6v-9s-3.134-8-7-8h-15c-1.105 0-2 .895-2 2s.895 2 2 2h10v4h-10c-1.105 0-2 .895-2 2s.895 2 2 2h10v6.99c-4.103 1.005-7.387 2.397-9 4.01l-3 2v12l2 1v29l1 1h45l1-1v-29l1-2v-11l-3-2zm-30-19c1 0 2.968 1 2.968 4h-2.968v-4zm0 8h3v5.25l-3 .5v-5.75zm3 52h-6v-26h6v26zm0-30h-7v-6h7v6zm8 30h-3v-26h3v26zm0-30h-4v-6h4v6zm-15.857-11c5.364-2.957 19.547-4.141 25.752 0h-25.752z"/><g fill="#834700"><path d="M57.525 343.5c.524 12.238 10.608 22 22.975 22s22.451-9.762 22.975-22h-45.95zm45.883-3c-.423-6.78-2.392-12.946-5.412-17.836.318-1.339.504-2.728.504-4.164 0-9.941-8.059-18-18-18s-18 8.059-18 18c0 1.436.186 2.825.504 4.164-3.02 4.89-4.988 11.056-5.412 17.836h45.816zM68.14 314.482c.121.003.238.018.36.018 4.915 0 9.264-2.375 12-6.027 2.736 3.653 7.085 6.027 12 6.027.121 0 .239-.015.36-.018.411 1.266.64 2.615.64 4.018 0 7.18-5.82 13-13 13s-13-5.82-13-13c0-1.403.229-2.752.64-4.018z"/><circle cx="75.5" cy="318.5" r="3"/><circle cx="85.5" cy="318.5" r="3"/></g><path fill="#834700" d="M378.5 323.5h12v35h-12zm18.136 32.009l2.355 2.094 2.467.897h28.292l1.866-1.35 9.427-20.65.457-2.292v-8.666l-.441-1.748-1.507-2.411-1.573-.883h-18.396l-.442-.705L422 305.5l-2-3-3.25-2-21.25 21v31.188"/></svg>